<svg id="eneonjz8dnc1" xmlns="http://www.w3.org/2000/svg" xmlns:xlink="http://www.w3.org/1999/xlink" viewBox="0 0 512 512" shape-rendering="geometricPrecision" text-rendering="geometricPrecision"><style><![CDATA[#eneonjz8dnc5_to {animation: eneonjz8dnc5_to__to 500ms linear infinite normal forwards}@keyframes eneonjz8dnc5_to__to { 0% {transform: translate(28.334509px,3.500000px)} 100% {transform: translate(-129.020000px,3.500000px)} }#eneonjz8dnc6_to {animation: eneonjz8dnc6_to__to 500ms linear infinite normal forwards}@keyframes eneonjz8dnc6_to__to { 0% {transform: translate(-129.016038px,3.500000px)} 100% {transform: translate(-279.182500px,3.500000px)} }#eneonjz8dnc7_to {animation: eneonjz8dnc7_to__to 500ms linear infinite normal forwards}@keyframes eneonjz8dnc7_to__to { 0% {transform: translate(0px,0.250000px)} 40% {transform: translate(5.430000px,0.250000px)} 100% {transform: translate(0px,0.250000px)} }]]></style><g id="eneonjz8dnc2"><g id="eneonjz8dnc3"><line id="eneonjz8dnc4" x1="74.857500" y1="346.500000" x2="381.752072" y2="346.500000" transform="matrix(1 0 0 1 15.76493699500151 3.50000000000003)" fill="none" stroke="rgb(255,82,0)" stroke-width="8" stroke-miterlimit="10" stroke-dasharray="0"/><g id="eneonjz8dnc5_to" transform="translate(28.334509,3.500000)"><line id="eneonjz8dnc5" x1="354.857500" y1="346.500000" x2="369.182500" y2="346.500000" transform="translate(0,0)" fill="none" stroke="rgb(255,255,255)" stroke-width="10" stroke-miterlimit="10" stroke-dasharray="0"/></g><g id="eneonjz8dnc6_to" transform="translate(-129.016038,3.500000)"><line id="eneonjz8dnc6" x1="354.857500" y1="346.500000" x2="369.182500" y2="346.500000" transform="translate(0,0)" fill="none" stroke="rgb(255,255,255)" stroke-width="10" stroke-miterlimit="10" stroke-dasharray="0"/></g><g id="eneonjz8dnc7_to" transform="translate(0,0.250000)"><path id="eneonjz8dnc7" d="M389.040000,148.120000L388.790000,147.410000L316.390000,147.410000L291.910000,281.120000L281.270000,281.120000L314.400000,99.760000L268.180000,99.760000L268.180000,99.750000L118.530000,99.750000L118.530000,100.810000C118.530000,129.200000,142.740000,138.370000,154.470000,138.370000L206.680000,138.370000L206.680000,138.350000C216.150000,138.350000,223.850000,146.060000,223.850000,155.530000C223.850000,164.960000,216.270000,172.630000,206.920000,172.760000L206.680000,172.760000L205.330000,172.760000L84.200000,172.760000L84.200000,173.820000C84.200000,202.200000,108.410000,211.390000,120.140000,211.390000L205.330000,211.390000L207.500000,211.390000L237.920000,211.390000C247.330000,211.460000,254.970000,219.120000,254.970000,228.550000C254.970000,238.070000,247.270000,245.810000,237.800000,245.810000L231.700000,245.810000L194.960000,245.810000L194.960000,245.770000L95.930000,245.770000L91.250000,245.770000L50,245.770000L50,246.830000C50,275.210000,74.210000,284.390000,85.940000,284.390000L91.250000,284.390000L95.930000,284.390000L103.840000,284.390000L100.070000,305.260000L130.020000,305.260000C133.640000,315.990000,141.610000,324.330000,151.980000,328.120000C156.010000,329.600000,160.150000,330.300000,164.240000,330.300000C179.390000,330.300000,193.840000,320.660000,199.880000,305.260000L247.670000,305.260000L247.670000,305.240000L288.780000,305.240000L299.890000,305.240000L307.780000,305.240000C311.400000,315.980000,319.370000,324.320000,329.750000,328.120000C333.750000,329.590000,337.910000,330.310000,342.070000,330.310000C347.610000,330.310000,353.160000,329.020000,358.380000,326.450000C367.210000,322.100000,373.980000,314.560000,377.630000,305.230000L401.500000,305.230000L416,225.940000L389.040000,148.120000ZM177.970000,299.480000C175.160000,307.160000,166.930000,311.210000,159.590000,308.520000C152.250000,305.830000,148.580000,297.430000,151.390000,289.750000C154.200000,282.070000,162.430000,278.020000,169.770000,280.710000C177.110000,283.390000,180.780000,291.790000,177.970000,299.480000M355.370000,299.480000C352.560000,307.160000,344.330000,311.210000,336.990000,308.520000C329.650000,305.830000,325.980000,297.430000,328.790000,289.750000C331.600000,282.070000,339.830000,278.020000,347.170000,280.710000C354.510000,283.390000,358.180000,291.790000,355.370000,299.480000M321.470000,226.250000L332.720000,164.850000L373.250000,164.850000L394.520000,226.250000L321.470000,226.250000Z" transform="translate(0,0)" fill="rgb(255,82,0)" stroke="none" stroke-width="1"/></g></g><g id="eneonjz8dnc8"><g id="eneonjz8dnc9"><path id="eneonjz8dnc10" d="M122.240000,411.480000L124.260000,402.800000L114.950000,402.800000L110.530000,411.480000L99.880000,411.480000L121.940000,371.690000L140.340000,371.690000L132.830000,411.480000L122.240000,411.480000ZM125.810000,381.360000L118.670000,395.400000L125.970000,395.400000L129.320000,381.360000L125.810000,381.360000Z" fill="rgb(255,82,0)" stroke="none" stroke-width="1"/></g><g id="eneonjz8dnc11"><polygon id="eneonjz8dnc12" points="176.930000,411.480000 151.510000,411.480000 166.320000,371.690000 176.350000,371.690000 164.780000,402.860000 180.160000,402.860000" fill="rgb(255,82,0)" stroke="none" stroke-width="1"/></g><g id="eneonjz8dnc13"><path id="eneonjz8dnc14" d="M201.230000,411.480000L203.250000,402.800000L193.940000,402.800000L189.520000,411.480000L178.880000,411.480000L200.940000,371.690000L219.340000,371.690000L211.830000,411.480000L201.230000,411.480000ZM204.800000,381.360000L197.660000,395.400000L204.960000,395.400000L208.310000,381.360000L204.800000,381.360000Z" fill="rgb(255,82,0)" stroke="none" stroke-width="1"/></g><path id="eneonjz8dnc15" d="M244.460000,412.250000C239.150000,412.250000,235.690000,411.110000,234.090000,408.820000C232.990000,407.200000,232.730000,404.930000,233.290000,402.020000C233.530000,400.770000,233.930000,399.420000,234.460000,397.980000L239.220000,385.270000C242.700000,375.950000,249.650000,371.290000,260.050000,371.290000C264.360000,371.290000,267.460000,372.200000,269.330000,374.030000C271.210000,375.850000,271.840000,378.350000,271.220000,381.510000C270.940000,382.990000,270.430000,384.450000,269.730000,385.910000C269.020000,387.360000,268.390000,388.440000,267.850000,389.140000L267.020000,390.240000L257.150000,390.240000C258.650000,388.840000,259.650000,386.850000,260.150000,384.280000C260.420000,382.920000,260.270000,381.840000,259.720000,381.040000C259.160000,380.250000,258.200000,379.850000,256.830000,379.850000C253.070000,379.850000,250.440000,381.910000,248.930000,386.040000L244.810000,397.200000C244.440000,398.160000,244.160000,399.100000,243.980000,400.020000C243.510000,402.450000,244.740000,403.670000,247.680000,403.670000C251.210000,403.670000,253.710000,401.700000,255.180000,397.760000L265.220000,397.760000L264.630000,399.360000C261.480000,407.960000,254.750000,412.250000,244.460000,412.250000" fill="rgb(255,82,0)" stroke="none" stroke-width="1"/><g id="eneonjz8dnc16"><path id="eneonjz8dnc17" d="M285.970000,411.480000L287.990000,402.800000L278.680000,402.800000L274.260000,411.480000L263.610000,411.480000L285.680000,371.690000L304.080000,371.690000L296.570000,411.480000L285.970000,411.480000ZM289.540000,381.360000L282.400000,395.400000L289.710000,395.400000L293.050000,381.360000L289.540000,381.360000Z" fill="rgb(255,82,0)" stroke="none" stroke-width="1"/></g><g id="eneonjz8dnc18"><path id="eneonjz8dnc19" d="M332.840000,371.690000C337.070000,371.690000,339.900000,372.610000,341.330000,374.450000C342.400000,375.850000,342.720000,377.620000,342.310000,379.750000C342.170000,380.490000,341.940000,381.260000,341.630000,382.070000L340.010000,386.380000C339.100000,388.780000,337.950000,390.710000,336.570000,392.180000C335.180000,393.660000,333.770000,394.700000,332.310000,395.330000L334.240000,411.470000L322.980000,411.470000L321.190000,396.600000L317.730000,396.600000L312.560000,411.470000L301.860000,411.470000L316.670000,371.680000L332.840000,371.680000ZM327.650000,380.310000L323.470000,380.310000L320.150000,389.930000L324.050000,389.930000C326.020000,389.930000,327.520000,389.470000,328.560000,388.520000C329.590000,387.580000,330.270000,386.340000,330.560000,384.790000C331.160000,381.800000,330.180000,380.310000,327.650000,380.310000" fill="rgb(255,82,0)" stroke="none" stroke-width="1"/></g><path id="eneonjz8dnc20" d="M352.280000,412.250000C347,412.250000,343.590000,411.040000,342.060000,408.600000C341.010000,406.900000,340.780000,404.580000,341.350000,401.630000C341.620000,400.270000,342.050000,398.780000,342.670000,397.160000L346.770000,386.110000C350.440000,376.240000,357.490000,371.300000,367.930000,371.300000C372.240000,371.300000,375.330000,372.210000,377.210000,374.040000C379.090000,375.860000,379.720000,378.360000,379.110000,381.520000C378.860000,382.810000,378.430000,384.120000,377.810000,385.450000C377.200000,386.770000,376.660000,387.770000,376.200000,388.430000L375.450000,389.420000L365.580000,389.420000C366.800000,388.090000,367.580000,386.570000,367.920000,384.830000C368.560000,381.510000,367.490000,379.860000,364.700000,379.860000C360.950000,379.860000,358.280000,382.020000,356.700000,386.320000L352.750000,396.930000C352.370000,397.930000,352.090000,398.900000,351.900000,399.860000C351.410000,402.400000,352.680000,403.670000,355.710000,403.670000C358.740000,403.670000,360.970000,402.160000,362.410000,399.140000L357.840000,399.140000L360.140000,393L374.920000,393L373.100000,397.760000L372.510000,399.360000C369.280000,407.960000,362.530000,412.250000,352.280000,412.250000" fill="rgb(255,82,0)" stroke="none" stroke-width="1"/><g id="eneonjz8dnc21"><path id="eneonjz8dnc22" d="M394.010000,411.480000L396.030000,402.800000L386.720000,402.800000L382.300000,411.480000L371.650000,411.480000L393.720000,371.690000L412.120000,371.690000L404.600000,411.480000L394.010000,411.480000ZM397.580000,381.360000L390.440000,395.400000L397.740000,395.400000L401.090000,381.360000L397.580000,381.360000Z" fill="rgb(255,82,0)" stroke="none" stroke-width="1"/></g></g><g id="eneonjz8dnc23"/></g></svg>